<?xml version="1.0" encoding="UTF-8"?>
<svg version="1.1" xmlns="http://www.w3.org/2000/svg" width="544" height="184">
<path d="M0 0 C1.36528841 1.30059337 2.71274059 2.62213253 4 4 C2.38989473 8.07376031 -0.53822271 10.76507069 -3.625 13.75 C-4.140625 14.25660156 -4.65625 14.76320313 -5.1875 15.28515625 C-6.45383339 16.52803902 -7.7263144 17.76465276 -9 19 C-9.68964844 18.54109375 -10.37929687 18.0821875 -11.08984375 17.609375 C-24.96252288 8.55121963 -37.76497174 3.81083852 -54.375 7.125 C-67.02003414 10.26037689 -76.68112864 17.14896204 -84.09765625 27.796875 C-91.26662535 39.86782913 -92.94537501 52.94708446 -90.30078125 66.61328125 C-86.93988469 78.68131067 -80.61433415 89.53703189 -69.62109375 95.98046875 C-55.98633865 103.15503337 -42.11705312 105.57464552 -27.0625 101.5 C-16.89159064 97.84001368 -8.95108142 91.66478222 -4 82 C-1.78785439 77.12240026 -0.47652993 72.16785475 1 67 C-13.85 67 -28.7 67 -44 67 C-44 61.06 -44 55.12 -44 49 C-22.55 49 -1.1 49 21 49 C21 88.42734245 21 88.42734245 5.26953125 104.7578125 C4.52058594 105.49773437 3.77164063 106.23765625 3 107 C2.38511719 107.63679688 1.77023438 108.27359375 1.13671875 108.9296875 C-11.45407259 121.06214168 -28.16127064 124.52826149 -45.05322266 124.41992188 C-64.19919513 123.88379341 -81.31197371 116.57153245 -95 103 C-108.84216841 87.23827049 -115.27204691 68.90782558 -114 48 C-111.35665441 29.18437471 -102.72611495 12.19445442 -87.80078125 0.23828125 C-61.00985721 -19.64998925 -26.45503498 -19.98427642 0 0 Z " fill="#4185F4" transform="translate(114,15)"/>
<path d="M0 0 C2.51609613 1.51067841 4.77993844 3.15346338 6.92578125 5.15625 C6.92578125 3.17625 6.92578125 1.19625 6.92578125 -0.84375 C13.19578125 -0.84375 19.46578125 -0.84375 25.92578125 -0.84375 C26.01646209 11.05741293 26.08971565 22.95834314 26.13302994 34.85977459 C26.15382767 40.38719801 26.18200147 45.91437103 26.22753906 51.44165039 C26.27127683 56.7844314 26.29497699 62.12697286 26.30529022 67.4699192 C26.31263174 69.49949726 26.32696683 71.52906349 26.34870148 73.55853844 C26.51479447 89.72307689 25.68907067 103.78008331 13.92578125 116.15625 C4.136509 124.36660737 -6.9822869 126.83267653 -19.5546875 126.5 C-31.40841196 125.34225555 -41.45742124 120.52495297 -49.44921875 111.65625 C-52.07708056 108.33211712 -54.23653897 104.97862395 -56.07421875 101.15625 C-55.07421875 98.15625 -55.07421875 98.15625 -52.0546875 96.515625 C-50.7952862 95.96771229 -49.5306635 95.4316824 -48.26171875 94.90625 C-47.63201172 94.62523437 -47.00230469 94.34421875 -46.35351562 94.0546875 C-43.77984819 92.96364695 -41.62285114 92.13453133 -38.8046875 92.24609375 C-36.52658866 93.44428117 -35.60770676 94.82418774 -34.19921875 96.96875 C-30.84990293 101.70018856 -27.65708951 104.29529308 -22.07421875 106.15625 C-14.3509564 106.80073564 -7.46039499 106.96168955 -1.07421875 102.15625 C3.62188165 97.71399286 5.69226749 91.72354527 6.109375 85.3515625 C6.11278401 82.94480078 6.06121088 80.55887197 5.92578125 78.15625 C5.30703125 78.73375 4.68828125 79.31125 4.05078125 79.90625 C-4.73267973 86.23034191 -13.39934208 87.24484304 -24.07421875 86.15625 C-36.49533569 83.57636807 -45.71244012 76.3677494 -53.07421875 66.15625 C-59.8750161 54.14898142 -61.73465448 41.55784531 -58.07421875 28.15625 C-54.46948291 15.81333252 -46.49602271 7.04089629 -35.53515625 0.68359375 C-24.83759918 -4.60624508 -10.88051442 -5.26173409 0 0 Z M-33.07421875 23.15625 C-38.29092182 31.03770139 -39.95048707 37.71758841 -39.07421875 47.15625 C-37.35737448 54.29253039 -34.05100339 59.8365089 -28.07421875 64.15625 C-22.31658112 67.50438886 -17.07931232 68.86711634 -10.4609375 67.828125 C-3.76202201 65.94234192 1.01680787 61.85218265 4.92578125 56.15625 C8.75803398 48.62389119 9.1899834 40.57425922 7.26953125 32.34375 C4.64243456 24.91540764 0.34139469 20.11706512 -6.44921875 16.21875 C-16.13613177 13.37948239 -26.22798669 15.28501709 -33.07421875 23.15625 Z " fill="#4185F4" transform="translate(394.07421875,52.84375)"/>
<path d="M0 0 C5.38957244 5.78746034 12.17541265 13.65875247 12.39257812 21.96533203 C10.98068738 25.3273159 8.97766111 25.98557343 5.70471191 27.3263855 C4.51283264 27.77970749 4.51283264 27.77970749 3.296875 28.2421875 C2.47296265 28.57364777 1.64905029 28.90510803 0.8001709 29.24661255 C-1.8501861 30.30807161 -4.51034621 31.3419161 -7.171875 32.375 C-8.90307098 33.06197225 -10.63354905 33.75075661 -12.36328125 34.44140625 C-15.78174141 35.80408557 -19.20383638 37.15695659 -22.62890625 38.50292969 C-30.01264794 41.41378665 -37.34269996 44.45493069 -44.671875 47.5 C-42.17050645 52.78315958 -39.05882604 56.21557732 -33.546875 58.375 C-27.43254651 60.14520492 -21.26610659 60.03166745 -15.37109375 57.51953125 C-10.84868857 54.88784914 -7.77887516 51.67503146 -4.671875 47.5 C-0.45533144 48.98635116 2.95291105 51.11249159 6.640625 53.625 C7.70925781 54.34945312 8.77789063 55.07390625 9.87890625 55.8203125 C10.68714844 56.37460938 11.49539063 56.92890625 12.328125 57.5 C7.66201859 67.36978269 -1.13582301 73.74414834 -11.296875 77.4375 C-24.03103589 80.67671422 -38.33865539 79.34763869 -49.70703125 72.734375 C-60.27032921 65.51209322 -66.7033977 55.91939861 -69.671875 43.5 C-71.2349535 28.51878382 -69.33434686 14.95072263 -59.796875 2.87109375 C-52.81691639 -4.91720565 -42.39060194 -10.77807471 -31.7890625 -11.50390625 C-18.76417408 -11.47987509 -9.56875297 -9.14748711 0 0 Z M-44.59375 15.5859375 C-48.43157194 20.79441013 -49.46813155 25.08208135 -49.671875 31.5 C-37.12783598 26.97562949 -24.8906788 21.83592453 -12.671875 16.5 C-12.3552561 13.4428327 -12.3552561 13.4428327 -14.359375 11.4375 C-19.04633761 7.51058538 -23.80527417 6.93002734 -29.7578125 7.06640625 C-35.86854221 7.97564351 -40.45564104 11.09457534 -44.59375 15.5859375 Z " fill="#EA4234" transform="translate(527.671875,60.5)"/>
<path d="M0 0 C9.58662433 6.88664814 16.63613352 16.01423287 19 27.8828125 C20.52452454 41.93702313 18.89465485 54.53064853 10.16015625 65.97265625 C2.72845124 74.5897866 -7.23543767 81.1632727 -18.80249023 82.40844727 C-33.42175459 83.19153307 -45.30004218 80.90803711 -56.75 71.1875 C-66.36467065 62.15496761 -70.7115402 51.01731494 -71.125 38 C-70.94476788 26.67917019 -67.8898185 17.01238515 -60.75 8.1875 C-60.27175781 7.57390625 -59.79351562 6.9603125 -59.30078125 6.328125 C-44.67402956 -10.32500287 -17.83312713 -11.10476865 0 0 Z M-45.5703125 21.37109375 C-50.01474573 28.21434359 -51.39488806 35.16609504 -50.1875 43.125 C-48.42771592 50.75073101 -44.16775495 57.06131292 -37.5234375 61.25390625 C-31.23820566 64.56265165 -25.55099858 64.55221116 -18.75 63.1875 C-10.67246118 60.0807543 -6.25822051 55.44315414 -2.7265625 47.73046875 C-0.03401382 40.71907199 -0.46145716 34.31370519 -2.75 27.1875 C-5.95815932 20.27669063 -10.36567971 16.07490939 -17 12.375 C-28.08266628 8.86548901 -38.4392865 12.04435636 -45.5703125 21.37109375 Z " fill="#FBBB04" transform="translate(308.75,56.8125)"/>
<path d="M0 0 C9.58662433 6.88664814 16.63613352 16.01423287 19 27.8828125 C20.52452454 41.93702313 18.89465485 54.53064853 10.16015625 65.97265625 C2.72845124 74.5897866 -7.23543767 81.1632727 -18.80249023 82.40844727 C-33.42175459 83.19153307 -45.30004218 80.90803711 -56.75 71.1875 C-66.36467065 62.15496761 -70.7115402 51.01731494 -71.125 38 C-70.94476788 26.67917019 -67.8898185 17.01238515 -60.75 8.1875 C-60.27175781 7.57390625 -59.79351562 6.9603125 -59.30078125 6.328125 C-44.67402956 -10.32500287 -17.83312713 -11.10476865 0 0 Z M-45.5703125 21.37109375 C-50.01474573 28.21434359 -51.39488806 35.16609504 -50.1875 43.125 C-48.42771592 50.75073101 -44.16775495 57.06131292 -37.5234375 61.25390625 C-31.23820566 64.56265165 -25.55099858 64.55221116 -18.75 63.1875 C-10.67246118 60.0807543 -6.25822051 55.44315414 -2.7265625 47.73046875 C-0.03401382 40.71907199 -0.46145716 34.31370519 -2.75 27.1875 C-5.95815932 20.27669063 -10.36567971 16.07490939 -17 12.375 C-28.08266628 8.86548901 -38.4392865 12.04435636 -45.5703125 21.37109375 Z " fill="#EA4234" transform="translate(212.75,56.8125)"/>
<path d="M0 0 C5.94 0 11.88 0 18 0 C18 42.9 18 85.8 18 130 C12.06 130 6.12 130 0 130 C0 87.1 0 44.2 0 0 Z " fill="#34A853" transform="translate(432,6)"/>
</svg>
